<svg xmlns="http://www.w3.org/2000/svg" version="1.1" xmlns:xlink="http://www.w3.org/1999/xlink" xmlns:svgjs="http://svgjs.dev/svgjs" width="1000" height="1000" viewBox="0 0 1000 1000"><rect width="1000" height="1000" fill="#4d7e3e"></rect><g transform="matrix(0.7,0,0,0.7,149.5757757821102,433.32861005963537)"><svg viewBox="0 0 396 76" data-background-color="#4d7e3e" preserveAspectRatio="xMidYMid meet" height="191" width="1000" xmlns="http://www.w3.org/2000/svg" xmlns:xlink="http://www.w3.org/1999/xlink"><defs></defs><g id="tight-bounds" transform="matrix(1,0,0,1,0.2399897004062268,-0.10152853053321564)"><svg viewBox="0 0 395.52 76.20305695071549" height="76.20305695071549" width="395.52"><g><svg viewBox="0 0 518.7523607138173 99.9456808424179" height="76.20305695071549" width="395.52"><g><rect width="4.387485319025363" height="72.68119337672212" x="107.35931173242187" y="13.63224373284789" fill="#ffffff" opacity="1" stroke-width="0" stroke="transparent" fill-opacity="1" class="rect-o-0" data-fill-palette-color="primary" rx="1%" id="o-0" data-palette-color="#ffffff"></rect></g><g transform="matrix(1,0,0,1,123.23236071381729,13.813042721347195)"><svg viewBox="0 0 395.52 72.31959539972351" height="72.31959539972351" width="395.52"><g><svg viewBox="0 0 395.52 72.31959539972351" height="72.31959539972351" width="395.52"><g><svg viewBox="0 0 395.52 48.65197505197505" height="48.65197505197505" width="395.52"><g transform="matrix(1,0,0,1,0,0)"><svg width="395.52" viewBox="2.200000047683716 -34.900001525878906 285.22998046875 35.5" height="48.65197505197505" data-palette-color="#ffffff"><g class="undefined-text-0" data-fill-palette-color="primary" id="text-0"><path d="M15.2-13.75L15.2-18.1 28.85-18.1 28.85 0 25.6 0 24.6-3.8Q21.5 0.6 15.65 0.6L15.65 0.6Q9.1 0.6 5.65-3.83 2.2-8.25 2.2-17.15L2.2-17.15Q2.2-25.95 5.85-30.43 9.5-34.9 16.2-34.9L16.2-34.9Q19.8-34.9 22.68-33.5 25.55-32.1 27.2-29.3 28.85-26.5 28.85-22.5L28.85-22.5 23.7-22.5Q23.7-26.4 21.65-28.4 19.6-30.4 16.15-30.4L16.15-30.4Q11.95-30.4 9.7-27.35 7.45-24.3 7.45-18.4L7.45-18.4 7.45-15.9Q7.45-9.95 9.6-6.93 11.75-3.9 16-3.9L16-3.9Q19.85-3.9 21.78-6.25 23.7-8.6 23.7-13.2L23.7-13.2 23.7-13.75 15.2-13.75ZM35.25 0L35.25-34.3 49.2-34.3Q54.2-34.3 56.87-31.68 59.55-29.05 59.55-24.7L59.55-24.7Q59.55-21.55 57.95-19.2 56.35-16.85 53.55-15.85L53.55-15.85 60.35 0 54.8 0 48.65-14.9 40.25-14.9 40.25 0 35.25 0ZM40.25-19.4L48.85-19.4Q51.35-19.4 52.77-20.85 54.2-22.3 54.2-24.7L54.2-24.7Q54.2-27.05 52.85-28.4 51.5-29.75 48.9-29.75L48.9-29.75 40.25-29.75 40.25-19.4ZM64.84 0L64.84-34.3 86.2-34.3 86.2-29.75 69.84-29.75 69.84-19.8 84-19.8 84-15.3 69.84-15.3 69.84-4.55 86.5-4.55 86.5 0 64.84 0ZM92.19 0L92.19-34.3 113.54-34.3 113.54-29.75 97.19-29.75 97.19-19.8 111.34-19.8 111.34-15.3 97.19-15.3 97.19-4.55 113.84-4.55 113.84 0 92.19 0ZM119.54 0L119.54-34.3 123.94-34.3 135.99-13.6Q136.64-12.5 137.89-9.45L137.89-9.45 138.04-9.5 137.94-13.5 137.94-34.3 142.44-34.3 142.44 0 138.14 0 125.99-20.9Q125.34-22.1 124.04-25.1L124.04-25.1 123.84-25Q124.04-22.15 124.04-21L124.04-21 124.04 0 119.54 0Z" fill="#ffffff" data-fill-palette-color="primary"></path><path d="M145.59 0L145.59-34.3 159.14-34.3Q161.74-34.3 163.79-33.25 165.84-32.2 167.02-30.28 168.19-28.35 168.19-25.85L168.19-25.85Q168.19-23 166.72-20.9 165.24-18.8 162.94-18L162.94-18 162.94-17.8Q165.59-17 167.29-14.68 168.99-12.35 168.99-9.15L168.99-9.15Q168.99-6.35 167.67-4.28 166.34-2.2 164.09-1.1 161.84 0 159.14 0L159.14 0 145.59 0ZM150.64-19.8L157.74-19.8Q160.09-19.8 161.51-21.28 162.94-22.75 162.94-24.85L162.94-24.85Q162.94-27.25 161.64-28.5 160.34-29.75 158.04-29.75L158.04-29.75 150.64-29.75 150.64-19.8ZM150.64-4.55L158.44-4.55Q160.79-4.55 162.27-5.93 163.74-7.3 163.74-9.8L163.74-9.8Q163.74-12.1 162.22-13.7 160.69-15.3 158.14-15.3L158.14-15.3 150.64-15.3 150.64-4.55ZM186.44 0.6Q179.89 0.6 176.29-3.88 172.69-8.35 172.69-17.15L172.69-17.15Q172.69-25.95 176.29-30.43 179.89-34.9 186.44-34.9L186.44-34.9Q192.99-34.9 196.59-30.43 200.19-25.95 200.19-17.15L200.19-17.15Q200.19-8.35 196.59-3.88 192.99 0.6 186.44 0.6L186.44 0.6ZM186.44-3.9Q190.49-3.9 192.71-6.98 194.94-10.05 194.94-15.9L194.94-15.9 194.94-18.4Q194.94-24.25 192.71-27.33 190.49-30.4 186.44-30.4L186.44-30.4Q182.39-30.4 180.16-27.33 177.94-24.25 177.94-18.4L177.94-18.4 177.94-15.9Q177.94-10.05 180.16-6.98 182.39-3.9 186.44-3.9L186.44-3.9ZM202.34 0L213.29-34.3 219.54-34.3 230.49 0 225.14 0 222.89-7.35 209.59-7.35 207.34 0 202.34 0ZM210.94-11.9L221.49-11.9 217.19-25.95Q216.79-27.25 216.34-30L216.34-30 216.14-30Q215.69-27.15 215.29-25.95L215.29-25.95 210.94-11.9ZM233.78 0L233.78-34.3 247.73-34.3Q252.73-34.3 255.41-31.68 258.08-29.05 258.08-24.7L258.08-24.7Q258.08-21.55 256.48-19.2 254.88-16.85 252.08-15.85L252.08-15.85 258.88 0 253.33 0 247.18-14.9 238.78-14.9 238.78 0 233.78 0ZM238.78-19.4L247.38-19.4Q249.88-19.4 251.31-20.85 252.73-22.3 252.73-24.7L252.73-24.7Q252.73-27.05 251.38-28.4 250.03-29.75 247.43-29.75L247.43-29.75 238.78-29.75 238.78-19.4ZM263.38 0L263.38-34.3 274.18-34.3Q280.48-34.3 283.96-30.05 287.43-25.8 287.43-17.65L287.43-17.65Q287.43-9 283.96-4.5 280.48 0 274.18 0L274.18 0 263.38 0ZM268.38-4.55L273.73-4.55Q277.73-4.55 279.96-7.55 282.18-10.55 282.18-16.4L282.18-16.4 282.18-18.9Q282.18-24.25 279.96-27 277.73-29.75 273.73-29.75L273.73-29.75 268.38-29.75 268.38-4.55Z" fill="#ffffff" data-fill-palette-color="primary"></path></g></svg></g></svg></g><g transform="matrix(1,0,0,1,0,60.13753871434511)"><svg viewBox="0 0 232.20979200000002 12.182056685378397" height="12.182056685378397" width="232.20979200000002"><g transform="matrix(1,0,0,1,0,0)"><svg width="232.20979200000002" viewBox="-0.4000000059604645 -35.349998474121094 680.4200439453125 35.69999694824219" height="12.182056685378397" data-palette-color="#ffffff"><path d="M26.45-35.25L29.9-35.25 16.25-16.85 16.25 0 13.2 0 13.2-16.95-0.4-35.25 3.15-35.25 14.8-19.45 26.45-35.25ZM39.45 0.35Q36.1 0.35 33.57-1.2 31.05-2.75 29.65-5.6 28.25-8.45 28.25-12.25L28.25-12.25Q28.25-16.05 29.65-18.9 31.05-21.75 33.57-23.3 36.1-24.85 39.45-24.85L39.45-24.85Q42.75-24.85 45.3-23.3 47.85-21.75 49.22-18.9 50.6-16.05 50.6-12.25L50.6-12.25Q50.6-8.45 49.22-5.6 47.85-2.75 45.3-1.2 42.75 0.35 39.45 0.35L39.45 0.35ZM39.4-2.35Q43.25-2.35 45.35-4.9 47.45-7.45 47.45-12.25L47.45-12.25Q47.45-16.95 45.32-19.58 43.2-22.2 39.45-22.2L39.45-22.2Q35.65-22.2 33.55-19.58 31.45-16.95 31.45-12.25L31.45-12.25Q31.45-7.45 33.5-4.9 35.55-2.35 39.4-2.35L39.4-2.35ZM73.65-24.25L76.7-24.25 76.7 0 73.7 0 73.7-4.35Q72.55-2.05 70.42-0.85 68.3 0.35 65.59 0.35L65.59 0.35Q61.3 0.35 59.12-2.02 56.95-4.4 56.95-9.05L56.95-9.05 56.95-24.25 60-24.25 60-9.25Q60-5.7 61.42-4.03 62.84-2.35 65.9-2.35L65.9-2.35Q69.4-2.35 71.52-4.58 73.65-6.8 73.65-10.5L73.65-10.5 73.65-24.25ZM97.14-24.85L97.39-22.2 95.24-22Q91.29-21.6 89.52-19.45 87.74-17.3 87.74-14.2L87.74-14.2 87.74 0 84.69 0 84.69-24.25 87.69-24.25 87.69-20Q88.79-22.25 90.82-23.38 92.84-24.5 95.84-24.75L95.84-24.75 97.14-24.85ZM118.49-25.75L118.49-24.25 125.59-24.25 125.59-21.8 118.49-21.8 118.49 0 115.44 0 115.44-21.8 110.64-21.8 110.64-24.25 115.44-24.25 115.44-25.45Q115.44-30.15 117.74-32.58 120.04-35 124.74-35.25L124.74-35.25 126.49-35.35 126.74-32.85 124.44-32.75Q121.39-32.55 119.94-30.83 118.49-29.1 118.49-25.75L118.49-25.75ZM146.59-24.25L149.64-24.25 149.64 0 146.64 0 146.64-4.35Q145.49-2.05 143.36-0.85 141.24 0.35 138.54 0.35L138.54 0.35Q134.24 0.35 132.06-2.02 129.89-4.4 129.89-9.05L129.89-9.05 129.89-24.25 132.94-24.25 132.94-9.25Q132.94-5.7 134.36-4.03 135.79-2.35 138.84-2.35L138.84-2.35Q142.34-2.35 144.46-4.58 146.59-6.8 146.59-10.5L146.59-10.5 146.59-24.25ZM167.48-2.25Q168.58-2.25 169.63-2.4L169.63-2.4 169.48 0.15Q168.38 0.3 167.13 0.3L167.13 0.3Q163.03 0.3 160.93-1.93 158.83-4.15 158.83-8L158.83-8 158.83-21.8 154.03-21.8 154.03-24.25 158.83-24.25 158.83-31.75 161.88-31.75 161.88-24.25 168.98-24.25 168.98-21.8 161.88-21.8 161.88-8.4Q161.88-5.35 163.31-3.8 164.73-2.25 167.48-2.25L167.48-2.25ZM190.58-24.25L193.63-24.25 193.63 0 190.63 0 190.63-4.35Q189.48-2.05 187.36-0.85 185.23 0.35 182.53 0.35L182.53 0.35Q178.23 0.35 176.06-2.02 173.88-4.4 173.88-9.05L173.88-9.05 173.88-24.25 176.93-24.25 176.93-9.25Q176.93-5.7 178.36-4.03 179.78-2.35 182.83-2.35L182.83-2.35Q186.33-2.35 188.46-4.58 190.58-6.8 190.58-10.5L190.58-10.5 190.58-24.25ZM214.08-24.85L214.33-22.2 212.18-22Q208.23-21.6 206.45-19.45 204.68-17.3 204.68-14.2L204.68-14.2 204.68 0 201.63 0 201.63-24.25 204.63-24.25 204.63-20Q205.73-22.25 207.75-23.38 209.78-24.5 212.78-24.75L212.78-24.75 214.08-24.85ZM238.03-13.1L238.03-11.75 219.68-11.75Q219.83-7.2 222.08-4.78 224.33-2.35 228.48-2.35L228.48-2.35Q232.88-2.35 236.43-5.35L236.43-5.35 237.63-2.95Q236.03-1.45 233.55-0.55 231.08 0.35 228.48 0.35L228.48 0.35Q222.93 0.35 219.73-3 216.53-6.35 216.53-12.2L216.53-12.2Q216.53-15.95 217.95-18.82 219.38-21.7 221.95-23.28 224.53-24.85 227.88-24.85L227.88-24.85Q232.63-24.85 235.33-21.75 238.03-18.65 238.03-13.1L238.03-13.1ZM227.88-22.35Q224.38-22.35 222.28-20.15 220.18-17.95 219.78-14L219.78-14 235.23-14Q235.13-18 233.23-20.18 231.33-22.35 227.88-22.35L227.88-22.35ZM260.02 0L256.97 0 256.97-24.25 260.02-24.25 260.02 0ZM256.52-30.65L256.52-34.5 260.52-34.5 260.52-30.65 256.52-30.65ZM275.97 0.35Q270.22 0.35 266.57-2.9L266.57-2.9 267.72-5.25Q269.67-3.65 271.62-2.98 273.57-2.3 276.12-2.3L276.12-2.3Q279.07-2.3 280.64-3.35 282.22-4.4 282.22-6.3L282.22-6.3Q282.22-7.9 281.17-8.88 280.12-9.85 277.82-10.35L277.82-10.35 273.72-11.3Q270.77-12 269.09-13.73 267.42-15.45 267.42-17.8L267.42-17.8Q267.42-20.95 269.87-22.9 272.32-24.85 276.42-24.85L276.42-24.85Q278.97-24.85 281.19-24.03 283.42-23.2 284.87-21.65L284.87-21.65 283.72-19.3Q282.02-20.8 280.24-21.5 278.47-22.2 276.42-22.2L276.42-22.2Q273.67-22.2 272.12-21.1 270.57-20 270.57-18.05L270.57-18.05Q270.57-16.45 271.54-15.45 272.52-14.45 274.57-13.95L274.57-13.95 278.72-12.95Q285.32-11.45 285.32-6.45L285.32-6.45Q285.32-3.35 282.79-1.5 280.27 0.35 275.97 0.35L275.97 0.35ZM307.61 0L304.56 0 304.56-24.25 307.61-24.25 307.61 0ZM304.11-30.65L304.11-34.5 308.11-34.5 308.11-30.65 304.11-30.65ZM327.01-24.85Q335.76-24.85 335.76-15.45L335.76-15.45 335.76 0 332.71 0 332.71-15.25Q332.71-18.85 331.26-20.5 329.81-22.15 326.66-22.15L326.66-22.15Q323.06-22.15 320.89-19.95 318.71-17.75 318.71-14.05L318.71-14.05 318.71 0 315.66 0 315.66-24.25 318.66-24.25 318.66-20.1Q319.81-22.4 321.99-23.63 324.16-24.85 327.01-24.85L327.01-24.85ZM365.96 0.35Q362.61 0.35 360.08-1.2 357.56-2.75 356.16-5.6 354.76-8.45 354.76-12.25L354.76-12.25Q354.76-16.05 356.16-18.9 357.56-21.75 360.08-23.3 362.61-24.85 365.96-24.85L365.96-24.85Q369.26-24.85 371.81-23.3 374.36-21.75 375.73-18.9 377.11-16.05 377.11-12.25L377.11-12.25Q377.11-8.45 375.73-5.6 374.36-2.75 371.81-1.2 369.26 0.35 365.96 0.35L365.96 0.35ZM365.91-2.35Q369.76-2.35 371.86-4.9 373.96-7.45 373.96-12.25L373.96-12.25Q373.96-16.95 371.83-19.58 369.71-22.2 365.96-22.2L365.96-22.2Q362.16-22.2 360.06-19.58 357.96-16.95 357.96-12.25L357.96-12.25Q357.96-7.45 360.01-4.9 362.06-2.35 365.91-2.35L365.91-2.35ZM400.15-24.25L403.2-24.25 403.2 0 400.2 0 400.2-4.35Q399.05-2.05 396.93-0.85 394.8 0.35 392.1 0.35L392.1 0.35Q387.8 0.35 385.63-2.02 383.45-4.4 383.45-9.05L383.45-9.05 383.45-24.25 386.5-24.25 386.5-9.25Q386.5-5.7 387.93-4.03 389.35-2.35 392.4-2.35L392.4-2.35Q395.9-2.35 398.03-4.58 400.15-6.8 400.15-10.5L400.15-10.5 400.15-24.25ZM423.65-24.85L423.9-22.2 421.75-22Q417.8-21.6 416.03-19.45 414.25-17.3 414.25-14.2L414.25-14.2 414.25 0 411.2 0 411.2-24.25 414.2-24.25 414.2-20Q415.3-22.25 417.33-23.38 419.35-24.5 422.35-24.75L422.35-24.75 423.65-24.85ZM450.6 0.35Q447.15 0.35 444.57-1.2 442-2.75 440.6-5.6 439.2-8.45 439.2-12.15L439.2-12.15Q439.2-15.9 440.62-18.8 442.05-21.7 444.65-23.28 447.25-24.85 450.75-24.85L450.75-24.85Q453.2-24.85 455.47-24 457.75-23.15 459.15-21.65L459.15-21.65 458-19.25Q456.15-20.8 454.42-21.5 452.7-22.2 450.85-22.2L450.85-22.2Q446.95-22.2 444.67-19.53 442.4-16.85 442.4-12.15L442.4-12.15Q442.4-7.5 444.65-4.93 446.9-2.35 450.8-2.35L450.8-2.35Q452.65-2.35 454.37-3.05 456.1-3.75 458-5.25L458-5.25 459.15-2.9Q457.65-1.4 455.35-0.53 453.05 0.35 450.6 0.35L450.6 0.35ZM467.54 0L464.49 0 464.49-35.25 467.54-35.25 467.54 0ZM485.19-24.85Q489.59-24.85 491.77-22.55 493.94-20.25 493.94-15.6L493.94-15.6 493.94 0 490.94 0 490.94-4.35Q489.89-2.1 487.89-0.88 485.89 0.35 483.29 0.35L483.29 0.35Q480.94 0.35 478.99-0.6 477.04-1.55 475.92-3.25 474.79-4.95 474.79-7L474.79-7Q474.79-9.7 476.19-11.2 477.59-12.7 480.84-13.35 484.09-14 489.89-14L489.89-14 490.94-14 490.94-15.85Q490.94-19.15 489.59-20.68 488.24-22.2 485.34-22.2L485.34-22.2Q483.14-22.2 481.12-21.58 479.09-20.95 476.94-19.55L476.94-19.55 475.79-21.9Q477.64-23.25 480.19-24.05 482.74-24.85 485.19-24.85L485.19-24.85ZM483.54-2.3Q486.79-2.3 488.87-4.5 490.94-6.7 490.94-10.1L490.94-10.1 490.94-11.75 489.99-11.75Q485.19-11.75 482.64-11.35 480.09-10.95 479.04-9.98 477.99-9 477.99-7.15L477.99-7.15Q477.99-5.05 479.59-3.68 481.19-2.3 483.54-2.3L483.54-2.3ZM509.79 0.35Q504.04 0.35 500.39-2.9L500.39-2.9 501.54-5.25Q503.49-3.65 505.44-2.98 507.39-2.3 509.94-2.3L509.94-2.3Q512.89-2.3 514.46-3.35 516.04-4.4 516.04-6.3L516.04-6.3Q516.04-7.9 514.99-8.88 513.94-9.85 511.64-10.35L511.64-10.35 507.54-11.3Q504.59-12 502.91-13.73 501.24-15.45 501.24-17.8L501.24-17.8Q501.24-20.95 503.69-22.9 506.14-24.85 510.24-24.85L510.24-24.85Q512.79-24.85 515.01-24.03 517.24-23.2 518.69-21.65L518.69-21.65 517.54-19.3Q515.84-20.8 514.06-21.5 512.29-22.2 510.24-22.2L510.24-22.2Q507.49-22.2 505.94-21.1 504.39-20 504.39-18.05L504.39-18.05Q504.39-16.45 505.36-15.45 506.34-14.45 508.39-13.95L508.39-13.95 512.54-12.95Q519.14-11.45 519.14-6.45L519.14-6.45Q519.14-3.35 516.61-1.5 514.09 0.35 509.79 0.35L509.79 0.35ZM533.69 0.35Q527.94 0.35 524.29-2.9L524.29-2.9 525.44-5.25Q527.39-3.65 529.34-2.98 531.29-2.3 533.84-2.3L533.84-2.3Q536.79-2.3 538.36-3.35 539.94-4.4 539.94-6.3L539.94-6.3Q539.94-7.9 538.89-8.88 537.84-9.85 535.54-10.35L535.54-10.35 531.44-11.3Q528.49-12 526.81-13.73 525.14-15.45 525.14-17.8L525.14-17.8Q525.14-20.95 527.59-22.9 530.04-24.85 534.14-24.85L534.14-24.85Q536.69-24.85 538.91-24.03 541.14-23.2 542.59-21.65L542.59-21.65 541.44-19.3Q539.74-20.8 537.96-21.5 536.19-22.2 534.14-22.2L534.14-22.2Q531.39-22.2 529.84-21.1 528.29-20 528.29-18.05L528.29-18.05Q528.29-16.45 529.26-15.45 530.24-14.45 532.29-13.95L532.29-13.95 536.44-12.95Q543.04-11.45 543.04-6.45L543.04-6.45Q543.04-3.35 540.51-1.5 537.99 0.35 533.69 0.35L533.69 0.35ZM562.13-24.85L562.38-22.2 560.23-22Q556.28-21.6 554.51-19.45 552.73-17.3 552.73-14.2L552.73-14.2 552.73 0 549.68 0 549.68-24.25 552.68-24.25 552.68-20Q553.78-22.25 555.81-23.38 557.83-24.5 560.83-24.75L560.83-24.75 562.13-24.85ZM575.78 0.35Q572.43 0.35 569.9-1.2 567.38-2.75 565.98-5.6 564.58-8.45 564.58-12.25L564.58-12.25Q564.58-16.05 565.98-18.9 567.38-21.75 569.9-23.3 572.43-24.85 575.78-24.85L575.78-24.85Q579.08-24.85 581.63-23.3 584.18-21.75 585.55-18.9 586.93-16.05 586.93-12.25L586.93-12.25Q586.93-8.45 585.55-5.6 584.18-2.75 581.63-1.2 579.08 0.35 575.78 0.35L575.78 0.35ZM575.73-2.35Q579.58-2.35 581.68-4.9 583.78-7.45 583.78-12.25L583.78-12.25Q583.78-16.95 581.65-19.58 579.53-22.2 575.78-22.2L575.78-22.2Q571.98-22.2 569.88-19.58 567.78-16.95 567.78-12.25L567.78-12.25Q567.78-7.45 569.83-4.9 571.88-2.35 575.73-2.35L575.73-2.35ZM603.03 0.35Q599.68 0.35 597.15-1.2 594.63-2.75 593.23-5.6 591.83-8.45 591.83-12.25L591.83-12.25Q591.83-16.05 593.23-18.9 594.63-21.75 597.15-23.3 599.68-24.85 603.03-24.85L603.03-24.85Q606.33-24.85 608.88-23.3 611.43-21.75 612.8-18.9 614.18-16.05 614.18-12.25L614.18-12.25Q614.18-8.45 612.8-5.6 611.43-2.75 608.88-1.2 606.33 0.35 603.03 0.35L603.03 0.35ZM602.98-2.35Q606.83-2.35 608.93-4.9 611.03-7.45 611.03-12.25L611.03-12.25Q611.03-16.95 608.9-19.58 606.78-22.2 603.03-22.2L603.03-22.2Q599.23-22.2 597.13-19.58 595.03-16.95 595.03-12.25L595.03-12.25Q595.03-7.45 597.08-4.9 599.13-2.35 602.98-2.35L602.98-2.35ZM646.82-24.85Q654.87-24.85 654.87-15.45L654.87-15.45 654.87 0 651.82 0 651.82-15.25Q651.82-18.9 650.52-20.53 649.22-22.15 646.37-22.15L646.37-22.15Q643.12-22.15 641.2-19.95 639.27-17.75 639.27-14L639.27-14 639.27 0 636.22 0 636.22-15.25Q636.22-18.9 634.92-20.53 633.62-22.15 630.77-22.15L630.77-22.15Q627.52-22.15 625.6-19.95 623.67-17.75 623.67-14L623.67-14 623.67 0 620.62 0 620.62-24.25 623.62-24.25 623.62-20.25Q624.67-22.5 626.65-23.68 628.62-24.85 631.22-24.85L631.22-24.85Q637.07-24.85 638.67-20.05L638.67-20.05Q639.72-22.3 641.87-23.58 644.02-24.85 646.82-24.85L646.82-24.85ZM670.67 0.35Q664.92 0.35 661.27-2.9L661.27-2.9 662.42-5.25Q664.37-3.65 666.32-2.98 668.27-2.3 670.82-2.3L670.82-2.3Q673.77-2.3 675.35-3.35 676.92-4.4 676.92-6.3L676.92-6.3Q676.92-7.9 675.87-8.88 674.82-9.85 672.52-10.35L672.52-10.35 668.42-11.3Q665.47-12 663.8-13.73 662.12-15.45 662.12-17.8L662.12-17.8Q662.12-20.95 664.57-22.9 667.02-24.85 671.12-24.85L671.12-24.85Q673.67-24.85 675.9-24.03 678.12-23.2 679.57-21.65L679.57-21.65 678.42-19.3Q676.72-20.8 674.95-21.5 673.17-22.2 671.12-22.2L671.12-22.2Q668.37-22.2 666.82-21.1 665.27-20 665.27-18.05L665.27-18.05Q665.27-16.45 666.25-15.45 667.22-14.45 669.27-13.95L669.27-13.95 673.42-12.95Q680.02-11.45 680.02-6.45L680.02-6.45Q680.02-3.35 677.5-1.5 674.97 0.35 670.67 0.35L670.67 0.35Z" opacity="1" transform="matrix(1,0,0,1,0,0)" fill="#ffffff" class="undefined-text-1" data-fill-palette-color="secondary" id="text-1"></path></svg></g></svg></g></svg></g></svg></g><g><svg viewBox="0 0 95.8737480700518 99.9456808424179" height="99.9456808424179" width="95.8737480700518"><g><svg xmlns:x="http://ns.adobe.com/Extensibility/1.0/" xmlns:i="http://ns.adobe.com/AdobeIllustrator/10.0/" xmlns:graph="http://ns.adobe.com/Graphs/1.0/" xmlns="http://www.w3.org/2000/svg" xmlns:xlink="http://www.w3.org/1999/xlink" version="1.1" x="0" y="0" viewBox="12.5 12.5 75 78.18538665771484" enable-background="new 0 0 100 100" xml:space="preserve" height="99.9456808424179" width="95.8737480700518" class="icon-icon-0" data-fill-palette-color="accent" id="icon-0"><g fill="#ffffff" data-fill-palette-color="accent"><g fill="#ffffff" data-fill-palette-color="accent"><path d="M82.5 12.5h-65c-2.761 0-5 2.239-5 5v50c0 2.762 2.239 5 5 5h65c2.762 0 5-2.238 5-5v-50C87.5 14.739 85.262 12.5 82.5 12.5z" fill="#ffffff" data-fill-palette-color="accent"></path><path d="M20.718 82.225c-1.444 2.888-0.273 6.398 2.613 7.843 2.887 1.442 6.398 0.272 7.842-2.614L37.4 75H24.331L20.718 82.225z" fill="#ffffff" data-fill-palette-color="accent"></path><path d="M75.67 75H62.6l6.227 12.453c1.444 2.887 4.955 4.057 7.842 2.614 2.887-1.444 4.058-4.955 2.613-7.843L75.67 75z" fill="#ffffff" data-fill-palette-color="accent"></path></g></g></svg></g></svg></g></svg></g></svg><rect width="395.52" height="76.20305695071549" fill="none" stroke="none" visibility="hidden"></rect></g></svg></g></svg>