<svg xmlns="http://www.w3.org/2000/svg" viewBox="0 0 1000 191">
      <svg
        xmlns="http://www.w3.org/2000/svg"
        xmlnsXlink="http://www.w3.org/1999/xlink"
        width="1000"
        height="191"
        data-background-color="#4d7e3e"
        transform="translate(-.606 .255)"
        viewBox="0 0 396 76"
      >
        <svg
          width="395.52"
          height="76.203"
          transform="translate(.24 -.102)"
          viewBox="0 0 395.52 76.203"
        >
          <svg width="395.52" height="76.203" viewBox="0 0 518.752 99.946">
            <rect
              width="4.388"
              height="72.681"
              x="107.36"
              y="13.632"
              fill="#fff"
              className="rect-o-0"
              data-fill-palette-color="primary"
              data-palette-color="#ffffff"
              rx="1%"
            ></rect>
            <svg
              width="395.52"
              height="72.32"
              transform="translate(123.23 13.813)"
              viewBox="0 0 395.52 72.32"
            >
              <svg width="395.52" height="72.32" viewBox="0 0 395.52 72.32">
                <svg width="395.52" height="48.652" viewBox="0 0 395.52 48.652">
                  <svg
                    width="395.52"
                    height="48.652"
                    data-palette-color="#ffffff"
                    viewBox="2.2 -34.9 285.23 35.5"
                  >
                    <g
                      fill="#fff"
                      className="undefined-text-0"
                      data-fill-palette-color="primary"
                    >
                      <path
                        d="M15.2-13.75v-4.35h13.65V0H25.6l-1-3.8Q21.5.6 15.65.6q-6.55 0-10-4.43Q2.2-8.25 2.2-17.15q0-8.8 3.65-13.28Q9.5-34.9 16.2-34.9q3.6 0 6.48 1.4 2.87 1.4 4.52 4.2t1.65 6.8H23.7q0-3.9-2.05-5.9t-5.5-2q-4.2 0-6.45 3.05T7.45-18.4v2.5q0 5.95 2.15 8.97Q11.75-3.9 16-3.9q3.85 0 5.78-2.35Q23.7-8.6 23.7-13.2v-.55h-8.5zM35.25 0v-34.3H49.2q5 0 7.67 2.62 2.68 2.63 2.68 6.98 0 3.15-1.6 5.5t-4.4 3.35L60.35 0H54.8l-6.15-14.9h-8.4V0h-5zm5-19.4h8.6q2.5 0 3.92-1.45 1.43-1.45 1.43-3.85 0-2.35-1.35-3.7t-3.95-1.35h-8.65v10.35zM64.84 0v-34.3H86.2v4.55H69.84v9.95H84v4.5H69.84v10.75H86.5V0H64.84zm27.35 0v-34.3h21.35v4.55H97.19v9.95h14.15v4.5H97.19v10.75h16.65V0H92.19zm27.35 0v-34.3h4.4l12.05 20.7q.65 1.1 1.9 4.15l.15-.05-.1-4v-20.8h4.5V0h-4.3l-12.15-20.9q-.65-1.2-1.95-4.2l-.2.1q.2 2.85.2 4V0h-4.5zM145.59 0v-34.3h13.55q2.6 0 4.65 1.05t3.23 2.97q1.17 1.93 1.17 4.43 0 2.85-1.47 4.95-1.48 2.1-3.78 2.9v.2q2.65.8 4.35 3.12 1.7 2.33 1.7 5.53 0 2.8-1.32 4.87-1.33 2.08-3.58 3.18T159.14 0h-13.55zm5.05-19.8h7.1q2.35 0 3.77-1.48 1.43-1.47 1.43-3.57 0-2.4-1.3-3.65t-3.6-1.25h-7.4v9.95zm0 15.25h7.8q2.35 0 3.83-1.38 1.47-1.37 1.47-3.87 0-2.3-1.52-3.9-1.53-1.6-4.08-1.6h-7.5v10.75zM186.44.6q-6.55 0-10.15-4.48-3.6-4.47-3.6-13.27t3.6-13.28q3.6-4.47 10.15-4.47t10.15 4.47q3.6 4.48 3.6 13.28t-3.6 13.27Q192.99.6 186.44.6zm0-4.5q4.05 0 6.27-3.08 2.23-3.07 2.23-8.92v-2.5q0-5.85-2.23-8.93-2.22-3.07-6.27-3.07t-6.28 3.07q-2.22 3.08-2.22 8.93v2.5q0 5.85 2.22 8.92 2.23 3.08 6.28 3.08zm15.9 3.9l10.95-34.3h6.25L230.49 0h-5.35l-2.25-7.35h-13.3L207.34 0h-5zm8.6-11.9h10.55l-4.3-14.05q-.4-1.3-.85-4.05h-.2q-.45 2.85-.85 4.05l-4.35 14.05zM233.78 0v-34.3h13.95q5 0 7.68 2.62 2.67 2.63 2.67 6.98 0 3.15-1.6 5.5t-4.4 3.35L258.88 0h-5.55l-6.15-14.9h-8.4V0h-5zm5-19.4h8.6q2.5 0 3.93-1.45 1.42-1.45 1.42-3.85 0-2.35-1.35-3.7t-3.95-1.35h-8.65v10.35zM263.38 0v-34.3h10.8q6.3 0 9.78 4.25 3.47 4.25 3.47 12.4 0 8.65-3.47 13.15-3.48 4.5-9.78 4.5h-10.8zm5-4.55h5.35q4 0 6.23-3 2.22-3 2.22-8.85v-2.5q0-5.35-2.22-8.1-2.23-2.75-6.23-2.75h-5.35v25.2z"
                        data-fill-palette-color="primary"
                      ></path>
                    </g>
                  </svg>
                </svg>
                <svg
                  width="232.21"
                  height="12.182"
                  transform="translate(0 60.138)"
                  viewBox="0 0 232.21 12.182"
                >
                  <svg
                    width="232.21"
                    height="12.182"
                    data-palette-color="#ffffff"
                    viewBox="-0.4 -35.35 680.42 35.7"
                  >
                    <path
                      fill="#fff"
                      d="M26.45-35.25h3.45l-13.65 18.4V0H13.2v-16.95L-.4-35.25h3.55l11.65 15.8 11.65-15.8zm13 35.6q-3.35 0-5.88-1.55-2.52-1.55-3.92-4.4t-1.4-6.65 1.4-6.65 3.92-4.4q2.53-1.55 5.88-1.55 3.3 0 5.85 1.55t3.92 4.4q1.38 2.85 1.38 6.65T49.22-5.6q-1.37 2.85-3.92 4.4T39.45.35zm-.05-2.7q3.85 0 5.95-2.55t2.1-7.35q0-4.7-2.13-7.33-2.12-2.62-5.87-2.62-3.8 0-5.9 2.62-2.1 2.63-2.1 7.33 0 4.8 2.05 7.35t5.9 2.55zm34.25-21.9h3.05V0h-3v-4.35q-1.15 2.3-3.28 3.5Q68.3.35 65.59.35q-4.29 0-6.47-2.37-2.17-2.38-2.17-7.03v-15.2H60v15q0 3.55 1.42 5.22 1.42 1.68 4.48 1.68 3.5 0 5.62-2.23 2.13-2.22 2.13-5.92v-13.75zm23.49-.6l.25 2.65-2.15.2q-3.95.4-5.72 2.55-1.78 2.15-1.78 5.25V0h-3.05v-24.25h3V-20q1.1-2.25 3.13-3.38 2.02-1.12 5.02-1.37l1.3-.1zm21.35-.9v1.5h7.1v2.45h-7.1V0h-3.05v-21.8h-4.8v-2.45h4.8v-1.2q0-4.7 2.3-7.13 2.3-2.42 7-2.67l1.75-.1.25 2.5-2.3.1q-3.05.2-4.5 1.92-1.45 1.73-1.45 5.08zm28.1 1.5h3.05V0h-3v-4.35q-1.15 2.3-3.28 3.5-2.12 1.2-4.82 1.2-4.3 0-6.48-2.37-2.17-2.38-2.17-7.03v-15.2h3.05v15q0 3.55 1.42 5.22 1.43 1.68 4.48 1.68 3.5 0 5.62-2.23 2.13-2.22 2.13-5.92v-13.75zm20.89 22q1.1 0 2.15-.15l-.15 2.55q-1.1.15-2.35.15-4.1 0-6.2-2.23-2.1-2.22-2.1-6.07v-13.8h-4.8v-2.45h4.8v-7.5h3.05v7.5h7.1v2.45h-7.1v13.4q0 3.05 1.43 4.6 1.42 1.55 4.17 1.55zm23.1-22h3.05V0h-3v-4.35q-1.15 2.3-3.27 3.5-2.13 1.2-4.83 1.2-4.3 0-6.47-2.37-2.18-2.38-2.18-7.03v-15.2h3.05v15q0 3.55 1.43 5.22 1.42 1.68 4.47 1.68 3.5 0 5.63-2.23 2.12-2.22 2.12-5.92v-13.75zm23.5-.6l.25 2.65-2.15.2q-3.95.4-5.73 2.55-1.77 2.15-1.77 5.25V0h-3.05v-24.25h3V-20q1.1-2.25 3.12-3.38 2.03-1.12 5.03-1.37l1.3-.1zm23.95 11.75v1.35h-18.35q.15 4.55 2.4 6.97 2.25 2.43 6.4 2.43 4.4 0 7.95-3l1.2 2.4q-1.6 1.5-4.08 2.4-2.47.9-5.07.9-5.55 0-8.75-3.35t-3.2-9.2q0-3.75 1.42-6.62 1.43-2.88 4-4.46 2.58-1.57 5.93-1.57 4.75 0 7.45 3.1t2.7 8.65zm-10.15-9.25q-3.5 0-5.6 2.2t-2.5 6.15h15.45q-.1-4-2-6.18-1.9-2.17-5.35-2.17zM260.02 0h-3.05v-24.25h3.05V0zm-3.5-30.65v-3.85h4v3.85h-4zm19.45 31q-5.75 0-9.4-3.25l1.15-2.35q1.95 1.6 3.9 2.27 1.95.68 4.5.68 2.95 0 4.52-1.05 1.58-1.05 1.58-2.95 0-1.6-1.05-2.58-1.05-.97-3.35-1.47l-4.1-.95q-2.95-.7-4.63-2.43-1.67-1.72-1.67-4.07 0-3.15 2.45-5.1t6.55-1.95q2.55 0 4.77.82 2.23.83 3.68 2.38l-1.15 2.35q-1.7-1.5-3.48-2.2-1.77-.7-3.82-.7-2.75 0-4.3 1.1t-1.55 3.05q0 1.6.97 2.6.98 1 3.03 1.5l4.15 1q6.6 1.5 6.6 6.5 0 3.1-2.53 4.95-2.52 1.85-6.82 1.85zM307.61 0h-3.05v-24.25h3.05V0zm-3.5-30.65v-3.85h4v3.85h-4zm22.9 5.8q8.75 0 8.75 9.4V0h-3.05v-15.25q0-3.6-1.45-5.25t-4.6-1.65q-3.6 0-5.77 2.2-2.18 2.2-2.18 5.9V0h-3.05v-24.25h3v4.15q1.15-2.3 3.33-3.53 2.17-1.22 5.02-1.22zM365.96.35q-3.35 0-5.88-1.55-2.52-1.55-3.92-4.4t-1.4-6.65 1.4-6.65 3.92-4.4q2.53-1.55 5.88-1.55 3.3 0 5.85 1.55t3.92 4.4q1.38 2.85 1.38 6.65t-1.38 6.65q-1.37 2.85-3.92 4.4T365.96.35zm-.05-2.7q3.85 0 5.95-2.55t2.1-7.35q0-4.7-2.13-7.33-2.12-2.62-5.87-2.62-3.8 0-5.9 2.62-2.1 2.63-2.1 7.33 0 4.8 2.05 7.35t5.9 2.55zm34.24-21.9h3.05V0h-3v-4.35q-1.15 2.3-3.27 3.5-2.13 1.2-4.83 1.2-4.3 0-6.47-2.37-2.18-2.38-2.18-7.03v-15.2h3.05v15q0 3.55 1.43 5.22 1.42 1.68 4.47 1.68 3.5 0 5.63-2.23 2.12-2.22 2.12-5.92v-13.75zm23.5-.6l.25 2.65-2.15.2q-3.95.4-5.72 2.55-1.78 2.15-1.78 5.25V0h-3.05v-24.25h3V-20q1.1-2.25 3.13-3.38 2.02-1.12 5.02-1.37l1.3-.1zM450.6.35q-3.45 0-6.03-1.55-2.57-1.55-3.97-4.4t-1.4-6.55q0-3.75 1.42-6.65 1.43-2.9 4.03-4.48 2.6-1.57 6.1-1.57 2.45 0 4.72.85 2.28.85 3.68 2.35l-1.15 2.4q-1.85-1.55-3.58-2.25-1.72-.7-3.57-.7-3.9 0-6.18 2.67-2.27 2.68-2.27 7.38 0 4.65 2.25 7.22 2.25 2.58 6.15 2.58 1.85 0 3.57-.7 1.73-.7 3.63-2.2l1.15 2.35q-1.5 1.5-3.8 2.37-2.3.88-4.75.88zM467.54 0h-3.05v-35.25h3.05V0zm17.65-24.85q4.4 0 6.58 2.3 2.17 2.3 2.17 6.95V0h-3v-4.35q-1.05 2.25-3.05 3.47-2 1.23-4.6 1.23-2.35 0-4.3-.95t-3.07-2.65q-1.13-1.7-1.13-3.75 0-2.7 1.4-4.2t4.65-2.15 9.05-.65h1.05v-1.85q0-3.3-1.35-4.83-1.35-1.52-4.25-1.52-2.2 0-4.22.62-2.03.63-4.18 2.03l-1.15-2.35q1.85-1.35 4.4-2.15t5-.8zM483.54-2.3q3.25 0 5.33-2.2 2.07-2.2 2.07-5.6v-1.65h-.95q-4.8 0-7.35.4t-3.6 1.37q-1.05.98-1.05 2.83 0 2.1 1.6 3.47 1.6 1.38 3.95 1.38zM509.79.35q-5.75 0-9.4-3.25l1.15-2.35q1.95 1.6 3.9 2.27 1.95.68 4.5.68 2.95 0 4.52-1.05 1.58-1.05 1.58-2.95 0-1.6-1.05-2.58-1.05-.97-3.35-1.47l-4.1-.95q-2.95-.7-4.63-2.43-1.67-1.72-1.67-4.07 0-3.15 2.45-5.1t6.55-1.95q2.55 0 4.77.82 2.23.83 3.68 2.38l-1.15 2.35q-1.7-1.5-3.48-2.2-1.77-.7-3.82-.7-2.75 0-4.3 1.1t-1.55 3.05q0 1.6.97 2.6.98 1 3.03 1.5l4.15 1q6.6 1.5 6.6 6.5 0 3.1-2.53 4.95-2.52 1.85-6.82 1.85zm23.9 0q-5.75 0-9.4-3.25l1.15-2.35q1.95 1.6 3.9 2.27 1.95.68 4.5.68 2.95 0 4.52-1.05 1.58-1.05 1.58-2.95 0-1.6-1.05-2.58-1.05-.97-3.35-1.47l-4.1-.95q-2.95-.7-4.63-2.43-1.67-1.72-1.67-4.07 0-3.15 2.45-5.1t6.55-1.95q2.55 0 4.77.82 2.23.83 3.68 2.38l-1.15 2.35q-1.7-1.5-3.48-2.2-1.77-.7-3.82-.7-2.75 0-4.3 1.1t-1.55 3.05q0 1.6.97 2.6.98 1 3.03 1.5l4.15 1q6.6 1.5 6.6 6.5 0 3.1-2.53 4.95-2.52 1.85-6.82 1.85zm28.44-25.2l.25 2.65-2.15.2q-3.95.4-5.72 2.55-1.78 2.15-1.78 5.25V0h-3.05v-24.25h3V-20q1.1-2.25 3.13-3.38 2.02-1.12 5.02-1.37l1.3-.1zM575.78.35q-3.35 0-5.88-1.55-2.52-1.55-3.92-4.4t-1.4-6.65 1.4-6.65 3.92-4.4q2.53-1.55 5.88-1.55 3.3 0 5.85 1.55t3.92 4.4q1.38 2.85 1.38 6.65t-1.38 6.65q-1.37 2.85-3.92 4.4T575.78.35zm-.05-2.7q3.85 0 5.95-2.55t2.1-7.35q0-4.7-2.13-7.33-2.12-2.62-5.87-2.62-3.8 0-5.9 2.62-2.1 2.63-2.1 7.33 0 4.8 2.05 7.35t5.9 2.55zm27.3 2.7q-3.35 0-5.88-1.55-2.52-1.55-3.92-4.4t-1.4-6.65 1.4-6.65 3.92-4.4q2.53-1.55 5.88-1.55 3.3 0 5.85 1.55t3.92 4.4q1.38 2.85 1.38 6.65T612.8-5.6q-1.37 2.85-3.92 4.4T603.03.35zm-.05-2.7q3.85 0 5.95-2.55t2.1-7.35q0-4.7-2.13-7.33-2.12-2.62-5.87-2.62-3.8 0-5.9 2.62-2.1 2.63-2.1 7.33 0 4.8 2.05 7.35t5.9 2.55zm43.84-22.5q8.05 0 8.05 9.4V0h-3.05v-15.25q0-3.65-1.3-5.28-1.3-1.62-4.15-1.62-3.25 0-5.17 2.2-1.93 2.2-1.93 5.95V0h-3.05v-15.25q0-3.65-1.3-5.28-1.3-1.62-4.15-1.62-3.25 0-5.17 2.2-1.93 2.2-1.93 5.95V0h-3.05v-24.25h3v4q1.05-2.25 3.03-3.43 1.97-1.17 4.57-1.17 5.85 0 7.45 4.8 1.05-2.25 3.2-3.53 2.15-1.27 4.95-1.27zM670.67.35q-5.75 0-9.4-3.25l1.15-2.35q1.95 1.6 3.9 2.27 1.95.68 4.5.68 2.95 0 4.53-1.05 1.57-1.05 1.57-2.95 0-1.6-1.05-2.58-1.05-.97-3.35-1.47l-4.1-.95q-2.95-.7-4.62-2.43-1.68-1.72-1.68-4.07 0-3.15 2.45-5.1t6.55-1.95q2.55 0 4.78.82 2.22.83 3.67 2.38l-1.15 2.35q-1.7-1.5-3.47-2.2-1.78-.7-3.83-.7-2.75 0-4.3 1.1t-1.55 3.05q0 1.6.98 2.6.97 1 3.02 1.5l4.15 1q6.6 1.5 6.6 6.5 0 3.1-2.52 4.95-2.53 1.85-6.83 1.85z"
                      className="undefined-text-1"
                      data-fill-palette-color="secondary"
                    ></path>
                  </svg>
                </svg>
              </svg>
            </svg>
            <svg width="95.874" height="99.946" viewBox="0 0 95.874 99.946">
              <svg
                xmlns="http://www.w3.org/2000/svg"
                xmlnsXlink="http://www.w3.org/1999/xlink"
                width="95.874"
                height="99.946"
                className="icon-icon-0"
                data-fill-palette-color="accent"
                viewBox="12.5 12.5 75 78.185"
              >
                <g fill="#fff" data-fill-palette-color="accent">
                  <path
                    d="M82.5 12.5h-65a5 5 0 00-5 5v50a5 5 0 005 5h65a5 5 0 005-5v-50a5 5 0 00-5-5zM20.718 82.225a5.847 5.847 0 002.613 7.843 5.848 5.848 0 007.842-2.614L37.4 75H24.331l-3.613 7.225zM75.67 75H62.6l6.227 12.453a5.845 5.845 0 1010.455-5.229L75.67 75z"
                    data-fill-palette-color="accent"
                  ></path>
                </g>
              </svg>
            </svg>
          </svg>
        </svg>
      </svg>
    </svg>